<?xml version="1.0" encoding="UTF-8" standalone="no"?>
<!-- Generator: Adobe Illustrator 18.1.0, SVG Export Plug-In . SVG Version: 6.00 Build 0)  -->

<svg
   xmlns:dc="http://purl.org/dc/elements/1.1/"
   xmlns:cc="http://creativecommons.org/ns#"
   xmlns:rdf="http://www.w3.org/1999/02/22-rdf-syntax-ns#"
   xmlns:svg="http://www.w3.org/2000/svg"
   xmlns="http://www.w3.org/2000/svg"
   xmlns:sodipodi="http://sodipodi.sourceforge.net/DTD/sodipodi-0.dtd"
   xmlns:inkscape="http://www.inkscape.org/namespaces/inkscape"
   version="1.1"
   x="0px"
   y="0px"
   viewBox="0 0 580.00002 70"
   xml:space="preserve"
   id="svg4300"
   inkscape:version="0.91 r13725"
   sodipodi:docname="huffpo logo.svg"
   width="580"
   height="70"><metadata
     id="metadata4379"><rdf:RDF><cc:Work
         rdf:about=""><dc:format>image/svg+xml</dc:format><dc:type
           rdf:resource="http://purl.org/dc/dcmitype/StillImage" /><dc:title /></cc:Work></rdf:RDF></metadata><defs
     id="defs4377" /><sodipodi:namedview
     pagecolor="#ffffff"
     bordercolor="#666666"
     borderopacity="1"
     objecttolerance="10"
     gridtolerance="10"
     guidetolerance="10"
     inkscape:pageopacity="0"
     inkscape:pageshadow="2"
     inkscape:window-width="1366"
     inkscape:window-height="741"
     id="namedview4375"
     showgrid="false"
     inkscape:zoom="0.50516419"
     inkscape:cx="-54.771117"
     inkscape:cy="31.5"
     inkscape:window-x="0"
     inkscape:window-y="0"
     inkscape:window-maximized="1"
     inkscape:current-layer="svg4300" /><g
     id="g4444"
     transform="translate(0,29.561329)"><path
       d="m 16.37097,14.415536 c 0,4.89003 0,5.52786 2.76393,5.740469 l 1.48827,0.21261 c 0.21261,0.21261 0.21261,1.06305 0,1.06305 -2.55133,0 -4.2522,-0.21261 -5.95308,-0.21261 -1.70088,0 -3.40176,0 -6.3783,0.21261 -0.21261,-0.21261 -0.42522,-0.85044 0,-1.06305 l 1.70088,-0.21261 c 2.55132,-0.212609 2.76394,-0.850439 2.76394,-5.740469 l 0,-20.4105564 c 0,-1.4882707 0,-1.4882707 -1.27567,-1.4882707 l -2.55132,0 c -1.91349,0 -4.46481,0 -5.52786,1.0630496 -1.06305,1.0630496 -1.48827,1.91349 -2.12609,3.18915 -0.42523,0.2126099 -1.06306,0 -1.27567,-0.4252201 0.63784,-2.1260996 1.48827,-4.890029 1.70088,-6.8035194 0.21261,0 0.63783,-0.212609 0.85044,0 0.21262,1.4882702 1.70088,1.4882702 3.82698,1.4882702 l 18.49707,0 c 2.55132,0 2.97655,0 3.61437,-1.2756602 0.21261,0 0.63783,0 0.85044,0.212611 -0.42522,1.9134887 -0.85044,5.5278585 -0.63783,7.0161284 -0.21261,0.42522 -1.06306,0.42522 -1.27566,0 -0.21261,-1.0630495 -0.42522,-2.7639296 -1.06305,-3.4017599 -1.06305,-0.8504395 -2.76393,-1.0630496 -5.31525,-1.0630496 l -3.18915,0 c -1.27566,0 -1.27566,0 -1.27566,1.4882707 l -0.21261,20.4105564 0,0 z"
       id="path3321"
       style="fill:#2f736f;fill-opacity:0.94117647"
       inkscape:connector-curvature="0" /><path
       d="m 45.49854,6.548967 c -2.1261,0 -2.33872,0 -2.33872,1.4882702 l 0,6.3782988 c 0,4.89003 0.21262,5.52786 2.76394,5.740469 l 1.27565,0.21261 c 0.21262,0.21261 0.21262,1.06305 0,1.06305 -2.55132,0 -4.03959,-0.21261 -5.74046,-0.21261 -1.91349,0 -3.61437,0 -5.31525,0.21261 -0.21261,-0.21261 -0.42523,-0.85044 0,-1.06305 l 0.85044,-0.21261 c 2.55132,-0.42522 2.55132,-0.850439 2.55132,-5.740469 l 0,-16.3709677 c 0,-4.8900291 -0.42523,-5.5278594 -2.76392,-5.7404686 l -1.27567,0 c -0.21261,-0.2126109 -0.21261,-1.0630504 0,-1.0630504 2.33871,0 3.82698,0.2126101 5.74046,0.2126101 1.70089,0 3.40176,0 5.31526,-0.2126101 0.2126,0.2126101 0.42522,1.0630504 0,1.0630504 l -0.85044,0 c -2.55133,0.2126092 -2.76393,1.0630496 -2.76393,5.7404686 l 0,5.3152496 c 0,1.4882692 0,1.4882692 2.3387,1.4882692 l 13.18183,0 c 2.1261,0 2.3387,0 2.3387,-1.4882692 l 0,-5.3152496 c 0,-4.8900291 0,-5.5278594 -2.76392,-5.7404686 l -0.85044,0 c -0.21261,-0.2126109 -0.21261,-1.0630504 0,-1.0630504 2.12609,0 3.61436,0.2126101 5.52786,0.2126101 1.70088,0 3.40176,0 5.31524,-0.2126101 0.21262,0.2126101 0.42523,1.0630504 0,1.0630504 l -1.06304,0 c -2.55132,0.2126092 -2.76393,1.0630496 -2.76393,5.7404686 l 0,16.3709677 c 0,4.89003 0,5.315249 2.76393,5.740469 l 1.06304,0.21261 c 0.21262,0.21261 0.21262,1.06305 0,1.06305 -2.1261,0 -3.82697,-0.21261 -5.52786,-0.21261 -1.91348,0 -3.61436,0 -5.52785,0.21261 -0.21262,-0.21261 -0.42522,-0.85044 0,-1.06305 l 0.85043,-0.21261 c 2.76394,-0.42522 2.76394,-0.850439 2.76394,-5.740469 l 0,-6.3782988 c 0,-1.2756604 0,-1.4882702 -2.33872,-1.4882702 l -12.75659,0 0,0 z"
       id="path3325"
       style="fill:#2f736f;fill-opacity:0.94117647"
       inkscape:connector-curvature="0" /><path
       d="m 79.94135,-1.9554317 c 0,-4.677419 0,-5.5278594 -2.76392,-5.7404686 l -0.63783,0 c -0.21262,-0.2126109 -0.21262,-1.0630504 0,-1.0630504 1.91348,0 3.61436,0.2126101 5.31524,0.2126101 l 8.5044,0 c 2.97654,0 5.52786,0 6.16568,-0.2126101 0.21262,0.8504395 0.63784,4.0395894 0.63784,6.1656891 -0.21261,0.2126099 -0.85044,0.42522 -1.06305,0 -0.63783,-2.1260997 -1.06305,-3.8269799 -3.40176,-4.2521992 -1.06304,-0.2126109 -2.33871,-0.2126109 -4.46481,-0.2126109 l -3.18915,0 c -1.27566,0 -1.27566,0 -1.27566,1.9134899 l 0,9.142229 c 0,1.2756604 0.21261,1.2756604 1.48828,1.2756604 l 2.55131,0 c 1.91349,0 3.40176,0 3.82699,-0.2126107 0.42521,-0.2126098 0.85042,-0.4252195 1.06304,-1.700879 l 0.42522,-1.9134896 c 0.21261,-0.2126108 1.06306,-0.2126108 1.27566,0 0,1.0630497 -0.2126,2.9765394 -0.2126,4.6774193 0,1.7008789 0.2126,3.4017588 0.2126,4.4648084 -0.2126,0.42522 -1.06305,0.42522 -1.27566,0 L 92.69795,8.8876772 C 92.48533,8.0372372 92.27273,7.399407 91.20968,7.1867973 90.57185,6.9741875 89.5088,6.9741875 87.59532,6.9741875 l -2.55133,0 c -1.27566,0 -1.48826,0 -1.48826,1.2756594 l 0,6.3782991 c 0,2.338709 0.2126,4.039589 0.85043,4.67742 0.63783,0.63783 1.48827,1.063049 5.52786,1.063049 3.61437,0 4.89003,-0.21261 5.95308,-0.63783 0.85044,-0.425219 2.12609,-2.126099 3.18915,-4.464809 0.42522,-0.21261 1.06305,0 1.06305,0.42522 -0.42521,1.70088 -1.48827,5.102638 -2.12611,6.378299 -4.03959,0 -8.07917,-0.21261 -12.33137,-0.21261 l -4.03959,0 c -1.91349,0 -3.61436,0 -6.16568,0.21261 -0.21262,-0.21261 -0.42522,-0.85044 0,-1.06305 l 1.48826,-0.212611 c 2.55133,-0.212609 2.76393,-0.850438 2.76393,-5.740468 l 0.21261,-17.0087977 0,0 z"
       id="path3329"
       style="fill:#2f736f;fill-opacity:0.94117647"
       inkscape:connector-curvature="0" /><path
       d="m 123.10117,6.548967 c -2.12609,0 -2.33871,0 -2.33871,1.4882702 l 0,6.3782988 c 0,4.89003 0.21262,5.52786 2.76394,5.740469 l 1.27565,0.21261 c 0.21262,0.21261 0.21262,1.06305 0,1.06305 -2.55132,0 -4.03959,-0.21261 -5.74047,-0.21261 -1.91349,0 -3.61436,0 -5.31525,0.21261 -0.2126,-0.21261 -0.42522,-0.85044 0,-1.06305 l 0.85045,-0.21261 c 2.55131,-0.42522 2.55131,-0.850439 2.55131,-5.740469 l 0,-16.3709677 c 0,-4.8900291 -0.42522,-5.5278594 -2.76392,-5.7404686 l -1.27567,0 c -0.2126,-0.2126109 -0.2126,-1.0630504 0,-1.0630504 2.33872,0 3.82699,0.2126101 5.74047,0.2126101 1.70088,0 3.40176,0 5.31526,-0.2126101 0.2126,0.2126101 0.42521,1.0630504 0,1.0630504 l -0.85045,0 c -2.55132,0.2126092 -2.76393,1.0630496 -2.76393,5.7404686 l 0,5.3152496 c 0,1.4882692 0,1.4882692 2.33871,1.4882692 l 13.18182,0 c 2.1261,0 2.3387,0 2.3387,-1.4882692 l 0,-5.3152496 c 0,-4.8900291 0,-5.5278594 -2.76392,-5.7404686 l -0.85044,0 c -0.2126,-0.2126109 -0.2126,-1.0630504 0,-1.0630504 2.12609,0 3.61436,0.2126101 5.52786,0.2126101 1.70089,0 3.40176,0 5.31525,-0.2126101 0.21261,0.2126101 0.42522,1.0630504 0,1.0630504 l -1.06305,0 c -2.55131,0.2126092 -2.76393,1.0630496 -2.76393,5.7404686 l 0,16.3709677 c 0,4.89003 0,5.315249 2.76393,5.740469 l 1.06305,0.21261 c 0.21261,0.21261 0.21261,1.06305 0,1.06305 -2.12609,0 -3.82698,-0.21261 -5.52786,-0.21261 -1.91349,0 -3.61436,0 -5.52785,0.21261 -0.21262,-0.21261 -0.42523,-0.85044 0,-1.06305 l 0.85043,-0.21261 c 2.76393,-0.42522 2.76393,-0.850439 2.76393,-5.740469 l 0,-6.3782988 c 0,-1.2756604 0,-1.4882702 -2.33871,-1.4882702 0.42522,0 -12.7566,0 -12.7566,0 z"
       id="path3333"
       style="fill:#2f736f;fill-opacity:0.94117647"
       inkscape:connector-curvature="0" /><path
       d="m 179.23021,2.509378 c 0,-2.76392964 0,-8.0791791 -0.85044,-9.5674497 -0.42523,-0.6378286 -1.06305,-0.8504395 -2.33872,-1.0630496 l -1.06304,0 c -0.21261,-0.4252193 -0.21261,-0.8504395 0,-1.0630496 1.70088,0 3.40176,0.2126101 5.31525,0.2126101 1.91349,0 3.18914,0 4.89002,-0.2126101 0.42522,0.2126101 0.42522,0.8504403 0,1.0630496 l -1.06305,0 c -1.06304,0 -1.91348,0.425221 -2.3387,1.0630496 -0.63784,1.4882706 -0.63784,6.80352006 -0.63784,9.3548389 l 0,5.1026398 c 0,4.039589 -0.63783,8.079179 -3.18915,10.843109 -1.91349,2.126099 -5.31525,3.401759 -8.717,3.401759 -3.18916,0 -6.3783,-0.63783 -8.5044,-2.55132 -2.33871,-1.913489 -3.61436,-5.315249 -3.61436,-10.8431081 l 0,-10.4178885 c 0,-4.6774192 0,-5.5278587 -2.76394,-5.7404696 l -1.06305,0 c -0.2126,-0.2126101 -0.2126,-1.0630496 0,-1.0630496 2.33871,0 3.82699,0.2126101 5.74047,0.2126101 1.91348,0 3.40176,0 5.52786,-0.2126101 0.21261,0.2126101 0.42521,0.8504395 0,1.0630496 l -1.06306,0 c -2.55132,0.2126109 -2.76392,1.0630504 -2.76392,5.7404696 l 0,9.7800584 c 0,7.4413492 2.3387,12.1187682 9.35483,12.1187682 6.59092,0 9.14224,-5.315249 9.14224,-12.1187682 l 0,-5.1026388 0,0 z"
       id="path3337"
       style="fill:#2f736f;fill-opacity:0.94117647"
       inkscape:connector-curvature="0" /><path
       d="m 199.21554,3.9976472 c 0,1.2756604 0.21262,1.2756604 1.48827,1.2756604 l 3.18915,0 c 1.91349,0 3.40176,0 3.82698,-0.2126107 0.42522,-0.2126098 0.85044,-0.4252195 1.06304,-1.700879 l 0.42523,-1.9134896 c 0.21261,-0.2126108 1.06305,-0.2126108 1.27567,0 0,1.0630497 -0.21262,2.9765394 -0.21262,4.6774193 0,1.7008789 0.21262,3.4017588 0.21262,4.4648084 -0.21262,0.212611 -0.85045,0.212611 -1.27567,0 l -0.42523,-1.7008788 c -0.2126,-0.85044 -0.63782,-1.4882702 -1.48826,-1.7008799 -0.63783,-0.2126098 -1.70088,-0.2126098 -3.61437,-0.2126098 l -3.18915,0 c -1.27566,0 -1.48827,0 -1.48827,1.2756594 l 0,6.3782991 c 0,4.890029 0,5.527859 2.76393,5.740469 l 1.48827,0.21261 c 0.21261,0.212609 0.21261,1.06305 0,1.06305 -2.76393,0 -4.2522,-0.21261 -6.16569,-0.21261 -1.91349,0 -3.61436,0 -5.74046,0.21261 -0.21262,-0.21261 -0.42523,-0.850441 0,-1.06305 l 1.06304,-0.21261 c 2.55132,-0.425219 2.76393,-0.85044 2.76393,-5.740469 l 0,-16.3709677 c 0,-4.890029 0,-5.5278593 -2.76393,-5.7404694 l -0.63783,0 c -0.21261,-0.2126092 -0.21261,-1.0630495 0,-1.0630495 1.91349,0 3.40176,0.21261 5.31525,0.21261 l 8.5044,0 c 2.97654,0 5.52786,0 6.16569,-0.21261 0,2.1260991 0,4.2521988 0.21261,5.953079 -0.21261,0.2126099 -0.85044,0.42522 -1.06305,0.2126099 -0.42521,-2.1260998 -0.85044,-3.8269797 -3.18915,-4.252199 -1.06305,-0.2126101 -2.55132,-0.2126101 -4.46481,-0.2126101 l -2.76393,0 c -1.27566,0 -1.27566,0 -1.27566,1.9134898 l 0,8.9296182 0,0 z"
       id="path3341"
       style="fill:#2f736f;fill-opacity:0.94117647"
       inkscape:connector-curvature="0" /><path
       d="m 226.64223,3.9976472 c 0,1.2756604 0.21261,1.2756604 1.48827,1.2756604 l 3.18914,0 c 1.9135,0 3.40177,0 3.82699,-0.2126107 0.42522,-0.2126098 0.85044,-0.4252195 1.06304,-1.700879 l 0.42523,-1.9134896 c 0.2126,-0.2126108 1.06305,-0.2126108 1.27565,0 0,1.0630497 -0.2126,2.9765394 -0.2126,4.6774193 0,1.7008789 0.2126,3.4017588 0.2126,4.4648084 -0.2126,0.212611 -0.85043,0.212611 -1.27565,0 l -0.42523,-1.7008788 c -0.2126,-0.85044 -0.63782,-1.4882702 -1.48826,-1.7008799 -0.63783,-0.2126098 -1.70087,-0.2126098 -3.61437,-0.2126098 l -3.18916,0 c -1.27565,0 -1.48827,0 -1.48827,1.2756594 l 0,6.3782991 c 0,4.890029 0,5.527859 2.76394,5.740469 l 1.48827,0.21261 c 0.21261,0.212609 0.21261,1.06305 0,1.06305 -2.76394,0 -4.25221,-0.21261 -6.16569,-0.21261 -1.91349,0 -3.61438,0 -5.74047,0.21261 -0.21261,-0.21261 -0.42523,-0.850441 0,-1.06305 l 1.06305,-0.21261 c 2.55131,-0.425219 2.76393,-0.85044 2.76393,-5.740469 l 0,-16.3709677 c 0,-4.890029 0,-5.5278593 -2.76393,-5.7404694 l -0.63783,0 c -0.21261,-0.2126092 -0.21261,-1.0630495 0,-1.0630495 1.91349,0 3.40176,0.21261 5.31525,0.21261 l 8.50441,0 c 2.97653,0 5.52785,0 6.16568,-0.21261 0,2.1260991 0,4.2521988 0.2126,5.953079 -0.2126,0.2126099 -0.85043,0.42522 -1.06304,0.2126099 -0.42523,-2.1260998 -0.85045,-3.8269797 -3.18915,-4.252199 -1.06305,-0.2126101 -2.55132,-0.2126101 -4.46481,-0.2126101 l -2.76394,0 c -1.27565,0 -1.27565,0 -1.27565,1.9134898 l 0,8.9296182 0,0 z"
       id="path3345"
       style="fill:#2f736f;fill-opacity:0.94117647"
       inkscape:connector-curvature="0" /><path
       d="m 250.66715,-1.9554317 c 0,-4.8900291 0,-5.5278594 -2.76393,-5.9530795 l -1.06304,0 c -0.21261,-0.2126101 -0.21261,-1.0630496 0,-1.0630496 2.33871,0 3.82697,0.2126101 5.74047,0.2126101 1.91348,0 3.40175,0 5.74046,-0.2126101 0.21261,0.2126101 0.42523,1.0630496 0,1.0630496 l -1.06304,0 c -2.76394,0.2126109 -2.76394,1.0630504 -2.76394,5.9530795 l 0,16.3709677 c 0,4.89003 0,5.52786 2.76394,5.740469 l 1.06304,0.21261 c 0.21261,0.21261 0.21261,1.06305 0,1.06305 -2.33871,0 -3.82698,-0.21261 -5.74046,-0.21261 -1.9135,0 -3.40176,0 -5.74047,0.21261 -0.21261,-0.21261 -0.42523,-0.85044 0,-1.06305 l 1.06304,-0.21261 c 2.76393,-0.42522 2.76393,-1.06305 2.76393,-5.740469 l 0,-16.3709677 z"
       id="path3349"
       style="fill:#2f736f;fill-opacity:0.94117647"
       inkscape:connector-curvature="0" /><path
       d="m 294.46481,13.565097 c 0,1.275658 0,6.803518 0.21261,8.079178 0,0.21261 -0.42523,0.42522 -0.85044,0.42522 -0.63783,-0.85044 -1.91349,-2.33871 -5.95308,-6.803519 L 277.24341,3.1472072 c -1.27567,-1.4882692 -4.25221,-5.1026389 -5.31526,-6.1656888 l 0,0 c -0.2126,0.6378299 -0.2126,1.7008799 -0.2126,2.97653971 l 0,9.99266869 c 0,2.1260992 0,8.0791792 0.85043,9.5674482 0.21261,0.425221 1.27566,0.85044 2.33871,0.85044 l 1.48827,0.21261 c 0.21261,0.42522 0.21261,0.85044 0,1.06305 -2.12609,0 -3.61437,-0.21261 -5.31525,-0.21261 -1.91348,0 -3.18915,0 -4.67742,0.21261 -0.42522,-0.21261 -0.42522,-0.850441 0,-1.06305 l 1.27567,-0.21261 c 1.06305,-0.21261 1.70087,-0.425219 1.91348,-0.85044 0.63784,-1.70088 0.63784,-7.228739 0.63784,-9.354838 l 0,-13.1818186 c 0,-1.2756602 0,-2.3387103 -1.06305,-3.1891498 -0.63784,-0.6378294 -1.70089,-1.0630496 -2.76394,-1.0630496 l -0.85044,0 c -0.21261,-0.2126101 -0.21261,-1.0630496 0,-1.0630496 1.91349,0.2126093 4.2522,0.2126093 5.10264,0.2126093 0.63784,0 1.48827,0 2.1261,-0.2126093 0.85044,2.3387102 6.3783,8.29178871 7.86657,9.9926686 l 4.46481,4.890029 c 3.18915,3.61437 5.31525,6.165689 7.44135,8.291788 l 0,0 c 0.2126,-0.212609 0.2126,-1.063049 0.2126,-1.913489 l 0,-9.7800588 c 0,-2.1260994 0,-8.0791782 -0.85043,-9.5674487 -0.21261,-0.4252193 -1.06305,-0.6378302 -2.76393,-0.8504395 l -0.85044,0 c -0.42522,-0.2126101 -0.21261,-1.0630496 0,-1.0630496 2.1261,0 3.61437,0.2126093 5.31525,0.2126093 1.91349,0 3.18915,0 4.67741,-0.2126093 0.42523,0.2126093 0.42523,0.8504395 0,1.0630496 l -0.63782,0 c -1.48827,0.2126093 -2.33871,0.6378303 -2.55132,1.0630496 -0.85045,1.7008799 -0.63783,7.2287392 -0.63783,9.3548386 l 0,10.4178898 0,0 z"
       id="path3353"
       style="fill:#2f736f;fill-opacity:0.94117647"
       inkscape:connector-curvature="0" /><path
       d="m 331.45894,16.541636 c 0,1.913489 0.21262,2.976539 1.06306,3.189149 0.21261,0.212611 0.21261,0.42522 0,0.63783 -0.63784,0 -1.27566,0.21261 -2.33871,0.425219 -2.33872,0.637831 -5.74048,1.275661 -8.2918,1.275661 -5.52786,0 -10.41788,-1.48827 -14.03224,-5.10264 -2.76394,-2.763929 -4.25221,-6.378299 -4.25221,-10.417888 0,-3.8269793 1.27566,-7.8665687 4.03959,-10.8431088 2.97654,-3.1891493 7.65396,-5.3152484 14.45748,-5.3152484 2.55132,0 5.10264,0.4252193 5.74046,0.6378294 0.85045,0.2126101 2.33872,0.4252202 2.76394,0.4252202 0,1.4882689 0.2126,3.8269793 0.63783,6.5909089 -0.21261,0.4252199 -1.06305,0.4252199 -1.27567,0.21261 -1.27565,-4.890029 -4.67741,-6.5909089 -9.35483,-6.5909089 -8.92962,0 -12.75659,6.3782989 -12.75659,13.1818177 0,8.7170099 4.4648,15.7331379 13.81964,15.7331379 2.76392,0 4.46481,-0.637829 5.10264,-1.275659 0.21261,-0.425221 0.42522,-1.06305 0.42522,-2.551321 l 0,-1.91349 c 0,-3.826979 -0.21261,-4.039588 -2.97654,-4.464809 l -1.9135,-0.212609 c -0.42522,-0.2126102 -0.42522,-1.06305 0,-1.06305 1.27567,0 3.82699,0.2126097 6.59091,0.2126097 1.70089,0 3.40176,0 4.89004,-0.2126097 0.42522,0.2126097 0.42522,0.8504398 0,1.06305 l -0.63783,0 c -1.91349,0.212609 -1.91349,1.48827 -1.91349,3.826979 l 0,2.55132 0.2126,0 z"
       id="path3357"
       style="fill:#2f736f;fill-opacity:0.94117647"
       inkscape:connector-curvature="0" /><path
       d="m 355.69649,14.415536 c 0,4.89003 0,5.52786 2.76392,5.740469 l 1.48827,0.21261 c 0.21262,0.21261 0.21262,1.06305 0,1.06305 -2.55132,0 -4.25219,-0.21261 -5.95308,-0.21261 -1.91349,0 -3.40175,0 -6.37829,0.21261 -0.21262,-0.21261 -0.42522,-0.85044 0,-1.06305 l 1.70087,-0.21261 c 2.55132,-0.212609 2.76393,-0.850439 2.76393,-5.740469 l 0,-20.4105564 c 0,-1.4882707 0,-1.4882707 -1.27566,-1.4882707 l -2.55131,0 c -1.9135,0 -4.46482,0 -5.52786,1.0630496 -1.06305,1.0630496 -1.48827,1.91349 -2.1261,3.18915 -0.42522,0.2126099 -1.06305,0 -1.27567,-0.4252201 0.63783,-2.1260996 1.48827,-4.890029 1.70088,-6.8035194 0.21262,0 0.63784,-0.212609 0.85044,0 0.21262,1.4882702 1.70089,1.4882702 3.82699,1.4882702 l 18.49707,0 c 2.55131,0 2.97654,0 3.61436,-1.2756602 0.21261,0 0.63783,0 0.85044,0.212611 -0.42521,1.9134887 -0.85044,5.5278585 -0.63783,7.0161284 -0.21261,0.42522 -1.06305,0.42522 -1.27566,0 -0.21261,-1.0630495 -0.42522,-2.7639296 -1.06304,-3.4017599 -1.06306,-0.8504395 -2.76394,-1.0630496 -5.31526,-1.0630496 l -3.18914,0 c -1.27567,0 -1.27567,0 -1.27567,1.4882707 l -0.2126,20.4105564 0,0 z"
       id="path3361"
       style="fill:#2f736f;fill-opacity:0.94117647"
       inkscape:connector-curvature="0" /><path
       d="m 373.34311,6.548967 c 0,-9.1422286 6.80352,-16.1583572 16.37097,-16.1583572 10.6305,0 15.94575,7.6539585 15.94575,15.7331378 0,9.1422284 -7.01613,15.9457474 -15.94575,15.9457474 -10.20528,0 -16.37097,-7.441349 -16.37097,-15.520528 m 27.6393,0.85044 c 0,-7.44134889 -3.40176,-15.7331376 -12.11877,-15.7331376 -4.67742,0 -10.84311,3.1891488 -10.84311,13.1818178 0,6.8035198 3.18915,15.5205278 12.33138,15.5205278 5.31525,0.21261 10.6305,-3.826979 10.6305,-12.969208"
       id="path3365"
       style="fill:#2f736f;fill-opacity:0.94117647"
       inkscape:connector-curvature="0" /><path
       d="m 440.10264,13.565097 c 0,1.275658 0,6.803518 0.21261,8.079178 0,0.21261 -0.42522,0.42522 -0.85044,0.42522 -0.63783,-0.85044 -1.91348,-2.33871 -5.95308,-6.803519 L 422.88123,3.1472072 c -1.27565,-1.4882692 -4.25219,-5.1026389 -5.31524,-6.1656888 l 0,0 c -0.21262,0.6378299 -0.21262,1.7008799 -0.21262,2.97653971 l 0,9.99266869 c 0,2.1260992 0,8.0791792 0.85044,9.5674482 0.21261,0.425221 1.27567,0.85044 2.33872,0.85044 l 1.48827,0.21261 c 0.2126,0.42522 0.2126,0.85044 0,1.06305 -2.12611,0 -3.61438,-0.21261 -5.31526,-0.21261 -1.91349,0 -3.18914,0 -4.67741,0.21261 -0.42522,-0.21261 -0.42522,-0.850441 0,-1.06305 l 1.27565,-0.21261 c 1.06305,-0.21261 1.70089,-0.425219 1.91349,-0.85044 0.63783,-1.70088 0.63783,-7.228739 0.63783,-9.354838 l 0,-13.1818186 c 0,-1.2756602 0,-2.3387103 -1.06305,-3.1891498 -0.63782,-0.6378294 -1.70087,-1.0630496 -2.76392,-1.0630496 l -0.85045,0 c -0.2126,-0.2126101 -0.2126,-1.0630496 0,-1.0630496 1.9135,0.2126093 4.25221,0.2126093 5.10264,0.2126093 0.63784,0 1.48827,0 2.1261,-0.2126093 0.85044,2.3387102 6.3783,8.29178871 7.86657,9.9926686 l 4.46482,4.890029 c 3.18913,3.61437 5.31524,6.165689 7.44135,8.291788 l 0,0 c 0.2126,-0.212609 0.2126,-1.063049 0.2126,-1.913489 l 0,-9.7800588 c 0,-2.1260994 0,-8.0791782 -0.85043,-9.5674487 -0.21262,-0.4252193 -1.06306,-0.6378302 -2.76393,-0.8504395 l -0.85046,0 c -0.42521,-0.2126101 -0.2126,-1.0630496 0,-1.0630496 2.12611,0 3.61439,0.2126093 5.31526,0.2126093 1.9135,0 3.18915,0 4.67742,-0.2126093 0.42522,0.2126093 0.42522,0.8504395 0,1.0630496 l -0.63783,0 c -1.48827,0.2126093 -2.33871,0.6378303 -2.55132,1.0630496 -0.85044,1.7008799 -0.63783,7.2287392 -0.63783,9.3548386 l 0,10.4178898 0,0 z"
       id="path3369"
       style="fill:#2f736f;fill-opacity:0.94117647"
       inkscape:connector-curvature="0" /><path
       d="m 466.67888,13.777706 c 0,4.890029 0,5.315249 2.97655,5.740469 l 1.27565,0.21261 c 0.21262,0.212611 0.21262,1.063049 0,1.063049 -2.55131,0 -4.03958,-0.212609 -5.95307,-0.212609 -1.91349,0 -3.61437,0 -5.52786,0.212609 -0.21261,-0.212609 -0.42522,-0.850438 0,-1.063049 l 1.06304,-0.21261 c 2.55133,-0.42522 2.76394,-0.85044 2.76394,-5.740469 l 0,-16.7961876 c 0,-3.8269792 0,-4.6774187 -2.12611,-4.8900296 l -1.70087,-0.2126101 c -0.42522,-0.2126093 -0.21261,-1.0630496 0,-1.0630496 2.33871,-0.4252193 5.31525,-0.4252193 9.14222,-0.4252193 3.82699,0 6.59092,0.4252193 8.71702,1.9134899 2.1261,1.2756588 3.61437,3.6143692 3.61437,6.80351839 0,4.25219981 -2.55132,6.37829921 -4.67742,7.22873921 -1.91349,1.0630497 -4.46481,1.2756595 -6.3783,1.2756595 -0.42523,-0.2126098 -0.42523,-0.8504401 0,-0.8504401 4.89003,-0.8504399 6.80351,-3.6143695 6.80351,-7.65395861 0,-4.46480999 -2.55132,-7.22873939 -7.44134,-7.22873939 -2.33871,0 -2.55133,0.2126101 -2.55133,1.7008798 l 0,20.1979475 0,0 z"
       id="path3373"
       style="fill:#2f736f;fill-opacity:0.94117647"
       inkscape:connector-curvature="0" /><path
       d="m 487.30206,5.9111368 c 0,-9.1422283 6.80351,-16.1583578 16.37096,-16.1583578 10.6305,0 15.94575,7.6539594 15.94575,15.7331383 0,9.1422287 -7.01613,15.9457477 -15.94575,15.9457477 -10.20528,0 -16.37096,-7.228739 -16.37096,-15.5205282 m 27.6393,0.85044 c 0,-7.44134896 -3.40177,-15.7331376 -12.11878,-15.7331376 -4.67742,0 -10.84311,3.1891496 -10.84311,13.1818187 0,6.8035181 3.18915,15.5205271 12.33137,15.5205271 5.31526,0.212611 10.63052,-3.826979 10.63052,-12.9692082"
       id="path3377"
       style="fill:#2f736f;fill-opacity:0.94117647"
       inkscape:connector-curvature="0" /><path
       d="m 534.50146,21.431665 c -3.82697,0 -6.16569,-1.27566 -7.22873,-1.70088 -0.63783,-1.06305 -1.06306,-4.252199 -1.27566,-6.378299 0.2126,-0.42522 0.85043,-0.42522 1.06305,-0.21261 0.63783,2.33871 2.55132,6.80352 7.86656,6.80352 3.82699,0 5.74047,-2.55132 5.74047,-5.31525 0,-1.91349 -0.42521,-4.2522 -3.82697,-6.3782991 l -4.2522,-2.7639296 c -2.33872,-1.4882701 -4.89003,-4.039589 -4.89003,-7.866569 0,-4.252199 3.40176,-7.8665693 9.35483,-7.8665693 1.48827,0 2.97654,0.212611 4.2522,0.6378308 0.63783,0.2126092 1.27566,0.2126092 1.70088,0.2126092 0.42523,1.0630504 0.85044,3.6143698 0.85044,5.5278597 -0.2126,0.2126097 -0.85044,0.4252194 -1.06304,0.2126097 -0.63783,-2.1260996 -1.91349,-5.1026391 -6.16569,-5.1026391 -4.46481,0 -5.52786,2.9765395 -5.52786,5.1026391 0,2.5513198 2.1261,4.6774194 3.82697,5.5278594 l 3.61437,2.3387101 c 2.97654,1.7008789 5.74048,4.4648085 5.74048,8.7170081 0,5.10264 -3.82699,8.504399 -9.78006,8.504399"
       id="path3381"
       style="fill:#2f736f;fill-opacity:0.94117647"
       inkscape:connector-curvature="0" /><path
       d="m 567.03079,13.777706 c 0,4.890029 0,5.52786 2.76393,5.740469 l 1.48827,0.21261 c 0.21261,0.212611 0.21261,1.063049 0,1.063049 -2.55132,0 -4.2522,-0.212609 -5.95308,-0.212609 -1.91349,0 -3.40175,0 -6.3783,0.212609 -0.2126,-0.212609 -0.42522,-0.850438 0,-1.063049 l 1.70088,-0.21261 c 2.55132,-0.212609 2.76393,-0.85044 2.76393,-5.740469 l 0,-20.4105567 c 0,-1.4882706 0,-1.4882706 -1.27566,-1.4882706 l -2.55132,0 c -1.91349,0 -4.46481,0 -5.52786,1.0630496 -1.06305,1.0630513 -1.48827,1.9134899 -2.1261,3.1891503 -0.42522,0.2126098 -1.06305,0 -1.27565,-0.4252204 0.63782,-2.1260997 1.48827,-4.8900291 1.70088,-6.8035192 0.2126,0 0.63782,-0.212609 0.85044,0 0.2126,1.4882708 1.70087,1.4882708 3.82697,1.4882708 l 18.49707,0 c 2.55132,0 2.97654,0 3.61437,-1.2756608 0.21261,0 0.63784,0 0.85044,0.212611 -0.42523,1.9134893 -0.85044,5.5278582 -0.63783,7.0161284 -0.21261,0.4252201 -1.06305,0.4252201 -1.27566,0 -0.21261,-1.0630497 -0.42522,-2.7639299 -1.06305,-3.4017601 -1.06305,-0.8504395 -2.76392,-1.0630496 -5.31525,-1.0630496 l -3.18915,0 c -1.27566,0 -1.27566,0 -1.27566,1.4882706 l -0.21261,20.4105567 0,0 z"
       id="path3385"
       style="fill:#2f736f;fill-opacity:0.94117647"
       inkscape:connector-curvature="0" /></g></svg>